<svg width="46" height="46" viewBox="0 0 46 46" fill="none" xmlns="http://www.w3.org/2000/svg">
<path d="M15.3333 5.75C16.2916 5.75 20.125 14.375 20.125 15.3333C20.125 17.25 17.25 19.1667 16.2916 21.0833C15.3333 23 17.25 24.9167 19.1666 26.8333C19.9141 27.5808 23 30.6667 24.9166 29.7083C26.8333 28.75 28.75 25.875 30.6666 25.875C31.625 25.875 40.25 29.7083 40.25 30.6667C40.25 34.5 37.375 37.375 34.5 38.3333C31.625 39.2917 29.7083 39.2917 25.875 38.3333C22.0416 37.375 19.1666 36.4167 14.375 31.625C9.58329 26.8333 8.62496 23.9583 7.66663 20.125C6.70829 16.2917 6.70829 14.375 7.66663 11.5C8.62496 8.625 11.5 5.75 15.3333 5.75Z" fill="black" stroke="black" stroke-width="2" stroke-linecap="round" stroke-linejoin="round"/>
</svg>
