<svg width="161" height="50" viewBox="0 0 161 50" fill="none" xmlns="http://www.w3.org/2000/svg">
<path d="M19.75 22.45C18.4167 22.45 17.75 21.7833 17.75 20.45V15.05C17.75 13.7167 17.0833 13.05 15.75 13.05H9.05C7.71667 13.05 7.05 13.7167 7.05 15.05V37.9C7.05 39.2333 7.71667 39.9 9.05 39.9H15.75C17.0833 39.9 17.75 39.2333 17.75 37.9V33C17.75 31.6667 18.4167 31 19.75 31H20.3C21.6333 31 22.3 31.6667 22.3 33V39.35C22.3 40.3167 21.9667 41.1333 21.3 41.8L19.65 43.45C18.9833 44.1167 18.1667 44.45 17.2 44.45H7.6C6.63333 44.45 5.81667 44.1167 5.15 43.45L3.5 41.8C2.83333 41.1333 2.5 40.3167 2.5 39.35V13.6C2.5 12.6333 2.83333 11.8167 3.5 11.15L5.15 9.5C5.81667 8.83333 6.63333 8.5 7.6 8.5H17.2C18.1667 8.5 18.9833 8.83333 19.65 9.5L21.3 11.15C21.9667 11.8167 22.3 12.6333 22.3 13.6V20.45C22.3 21.7833 21.6333 22.45 20.3 22.45H19.75ZM42.5547 10.45C42.5547 9.11667 43.2214 8.45 44.5547 8.45H45.1047C46.438 8.45 47.1047 9.11667 47.1047 10.45V39.3C47.1047 40.2667 46.7714 41.1 46.1047 41.8L44.5047 43.4C43.838 44.0667 43.0214 44.4 42.0547 44.4H32.4047C31.438 44.4 30.6214 44.0667 29.9547 43.4L28.3047 41.75C27.638 41.0833 27.3047 40.2667 27.3047 39.3V10.45C27.3047 9.11667 27.9714 8.45 29.3047 8.45H29.8547C31.188 8.45 31.8547 9.11667 31.8547 10.45V37.85C31.8547 39.1833 32.5214 39.85 33.8547 39.85H40.5547C41.888 39.85 42.5547 39.1833 42.5547 37.85V10.45ZM69.8594 39.9C71.1927 39.9 71.8594 40.5667 71.8594 41.9V42.45C71.8594 43.7833 71.1927 44.45 69.8594 44.45H68.0594C67.0927 44.45 66.276 44.1167 65.6094 43.45L63.9594 41.8C63.2927 41.1333 62.9594 40.3167 62.9594 39.35V33.25C62.9594 31.9167 62.2927 31.25 60.9594 31.25H58.6594C57.326 31.25 56.6594 31.9167 56.6594 33.25V42.4C56.6594 43.7333 55.9927 44.4 54.6594 44.4H54.1094C52.776 44.4 52.1094 43.7333 52.1094 42.4V10.55C52.1094 9.21666 52.776 8.55 54.1094 8.55H66.7594C67.726 8.55 68.5427 8.88333 69.2094 9.55L70.8594 11.2C71.526 11.8667 71.8594 12.6833 71.8594 13.65V26.2C71.8594 26.7 71.776 27.15 71.6094 27.55C71.4427 27.9167 71.176 28.2833 70.8094 28.65L69.2094 30.25C68.5427 30.9167 68.0927 31.25 67.8594 31.25C67.626 31.25 67.5094 31.9167 67.5094 33.25V37.9C67.5094 39.2333 68.176 39.9 69.5094 39.9H69.8594ZM67.3094 15.1C67.3094 13.7667 66.6427 13.1 65.3094 13.1H58.6594C57.326 13.1 56.6594 13.7667 56.6594 15.1V24.75C56.6594 26.0833 57.326 26.75 58.6594 26.75H65.3094C66.6427 26.75 67.3094 26.0833 67.3094 24.75V15.1ZM93.627 20.2C92.2936 20.2 91.627 19.5333 91.627 18.2V14.25C91.627 12.9167 90.9603 12.25 89.627 12.25H82.927C81.5936 12.25 80.927 12.9167 80.927 14.25V22.2C80.927 23.5333 81.5936 24.2 82.927 24.2H91.127C92.0936 24.2 92.9103 24.5333 93.577 25.2L95.177 26.8C95.8436 27.4667 96.177 28.2833 96.177 29.25V39.35C96.177 40.3167 95.8436 41.15 95.177 41.85L93.577 43.45C92.9103 44.1167 92.0936 44.45 91.127 44.45H81.477C80.5103 44.45 79.6936 44.1167 79.027 43.45L77.377 41.8C76.7103 41.1333 76.377 40.3167 76.377 39.35V34.45C76.377 33.1167 77.0436 32.45 78.377 32.45H78.927C80.2603 32.45 80.927 33.1167 80.927 34.45V37.9C80.927 39.2333 81.5936 39.9 82.927 39.9H89.627C90.9603 39.9 91.627 39.2333 91.627 37.9V30.7C91.627 29.3667 90.9603 28.7 89.627 28.7H81.477C80.477 28.7 79.6436 28.3667 78.977 27.7L77.377 26.1C76.7103 25.4333 76.377 24.6167 76.377 23.65V12.8C76.377 11.8333 76.7103 11 77.377 10.3L78.977 8.7C79.6436 8.03333 80.4603 7.7 81.427 7.7H91.127C92.0936 7.7 92.9103 8.05 93.577 8.75L95.177 10.35C95.8436 11.0167 96.177 11.8333 96.177 12.8V18.2C96.177 19.5333 95.5103 20.2 94.177 20.2H93.627ZM154.869 39.9C156.202 39.9 156.869 40.5667 156.869 41.9V42.45C156.869 43.7833 156.202 44.45 154.869 44.45H153.069C152.102 44.45 151.286 44.1167 150.619 43.45L148.969 41.8C148.302 41.1333 147.969 40.3167 147.969 39.35V33.25C147.969 31.9167 147.302 31.25 145.969 31.25H143.669C142.336 31.25 141.669 31.9167 141.669 33.25V42.4C141.669 43.7333 141.002 44.4 139.669 44.4H139.119C137.786 44.4 137.119 43.7333 137.119 42.4V10.55C137.119 9.21666 137.786 8.55 139.119 8.55H151.769C152.736 8.55 153.552 8.88333 154.219 9.55L155.869 11.2C156.536 11.8667 156.869 12.6833 156.869 13.65V26.2C156.869 26.7 156.786 27.15 156.619 27.55C156.452 27.9167 156.186 28.2833 155.819 28.65L154.219 30.25C153.552 30.9167 153.102 31.25 152.869 31.25C152.636 31.25 152.519 31.9167 152.519 33.25V37.9C152.519 39.2333 153.186 39.9 154.519 39.9H154.869ZM152.319 15.1C152.319 13.7667 151.652 13.1 150.319 13.1H143.669C142.336 13.1 141.669 13.7667 141.669 15.1V24.75C141.669 26.0833 142.336 26.75 143.669 26.75H150.319C151.652 26.75 152.319 26.0833 152.319 24.75V15.1Z" fill="black"/>
<path d="M105.208 34.7776L108.269 9.41459C108.366 8.60988 109.33 8.24898 109.932 8.79201L127.912 25.0184C128.435 25.4902 128.319 26.3403 127.69 26.6552L118.848 31.0761C118.372 31.3138 118.166 31.8818 118.378 32.3693L122.561 41.9894C122.796 42.5309 122.513 43.1576 121.952 43.3395L120.826 43.7038C120.315 43.8692 119.765 43.6015 119.58 43.0975L115.864 32.9893C115.666 32.4516 115.058 32.1895 114.531 32.4152L106.595 35.8166C105.886 36.1201 105.116 35.5425 105.208 34.7776Z" fill="#0A0A0A" stroke="black" stroke-width="3" stroke-linecap="round"/>
<path d="M109.19 30.1956L110.779 15.0948C110.868 14.2564 111.89 13.8967 112.484 14.495L122.021 24.1047C122.502 24.5896 122.367 25.4035 121.754 25.7058L110.627 31.1971C109.921 31.5456 109.107 30.9789 109.19 30.1956Z" fill="white" stroke="white" stroke-width="2" stroke-linecap="round"/>
</svg>
