<svg width="20" height="21" viewBox="0 0 20 21" fill="none" xmlns="http://www.w3.org/2000/svg">
<path fill-rule="evenodd" clip-rule="evenodd" d="M2.25897 9.63224C2.25897 7.70069 2.99676 5.84825 4.31004 4.48244C5.62332 3.11663 7.40451 2.34933 9.26177 2.34933C11.119 2.34933 12.9002 3.11663 14.2135 4.48244C15.5268 5.84825 16.2646 7.70069 16.2646 9.63224C16.2646 11.5638 15.5268 13.4162 14.2135 14.782C12.9002 16.1478 11.119 16.9152 9.26177 16.9152C7.40451 16.9152 5.62332 16.1478 4.31004 14.782C2.99676 13.4162 2.25897 11.5638 2.25897 9.63224ZM9.26177 0C4.14747 0 0 4.31336 0 9.63224C0 14.9511 4.14747 19.2645 9.26177 19.2645C11.4123 19.2645 13.3912 18.5024 14.9634 17.2234L18.4025 20.8L20 19.1386L16.5609 15.5619C17.8359 13.8701 18.5271 11.7818 18.5235 9.63224C18.5235 4.31336 14.377 0 9.26177 0Z" fill="#D9D9D9"/>
</svg>
