<svg width="20" height="20" viewBox="0 0 20 20" fill="none" xmlns="http://www.w3.org/2000/svg">
<path d="M9.26172 0.5C14.1007 0.5 18.0234 4.42355 18.0234 9.26172V9.2627C18.0268 11.2174 17.3728 13.1168 16.167 14.6553L15.8945 15.0039L16.207 15.3174L19.292 18.4023L18.4023 19.292L15.3174 16.207L15.0039 15.8945L14.6553 16.167C13.1678 17.3304 11.2967 18.0234 9.26172 18.0234C4.42358 18.0234 0.5 14.0999 0.5 9.26172C0.500027 4.4236 4.4236 0.500027 9.26172 0.5ZM9.26172 1.75879C7.27187 1.7588 5.36309 2.54902 3.95605 3.95605C2.54902 5.36309 1.7588 7.27187 1.75879 9.26172C1.75879 11.2516 2.54904 13.1603 3.95605 14.5674C5.36309 15.9744 7.27187 16.7646 9.26172 16.7646C11.2516 16.7646 13.1603 15.9744 14.5674 14.5674C15.9744 13.1603 16.7646 11.2516 16.7646 9.26172C16.7646 7.27187 15.9744 5.36309 14.5674 3.95605C13.1603 2.54904 11.2516 1.75879 9.26172 1.75879Z" fill="#FFB800" stroke="#FFB800"/>
</svg>
