<svg width="20" height="20" viewBox="0 0 20 20" fill="none" xmlns="http://www.w3.org/2000/svg">
<path fill-rule="evenodd" clip-rule="evenodd" d="M2.25897 9.26177C2.25897 7.40451 2.99676 5.62332 4.31004 4.31004C5.62332 2.99676 7.40451 2.25897 9.26177 2.25897C11.119 2.25897 12.9002 2.99676 14.2135 4.31004C15.5268 5.62332 16.2646 7.40451 16.2646 9.26177C16.2646 11.119 15.5268 12.9002 14.2135 14.2135C12.9002 15.5268 11.119 16.2646 9.26177 16.2646C7.40451 16.2646 5.62332 15.5268 4.31004 14.2135C2.99676 12.9002 2.25897 11.119 2.25897 9.26177ZM9.26177 0C4.14747 0 0 4.14747 0 9.26177C0 14.3761 4.14747 18.5235 9.26177 18.5235C11.4123 18.5235 13.3912 17.7907 14.9634 16.5609L18.4025 20L20 18.4025L16.5609 14.9634C17.8359 13.3367 18.5271 11.3286 18.5235 9.26177C18.5235 4.14747 14.377 0 9.26177 0Z" fill="black"/>
</svg>
