<svg width="46" height="46" viewBox="0 0 46 46" fill="none" xmlns="http://www.w3.org/2000/svg">
<path d="M9.58338 38.3334V34.5H36.4167V38.3334H9.58338ZM9.58338 31.625L7.13963 16.2438C7.07574 16.2438 7.00355 16.2521 6.92304 16.2687C6.84255 16.2853 6.77099 16.293 6.70838 16.2917C5.90977 16.2917 5.23127 16.0119 4.67288 15.4522C4.11449 14.8925 3.83466 14.214 3.83338 13.4167C3.8321 12.6194 4.11193 11.9409 4.67288 11.3812C5.23382 10.8215 5.91232 10.5417 6.70838 10.5417C7.50443 10.5417 8.18357 10.8215 8.7458 11.3812C9.30802 11.9409 9.58721 12.6194 9.58338 13.4167C9.58338 13.6403 9.5591 13.848 9.51054 14.0396C9.46199 14.2313 9.40641 14.407 9.3438 14.5667L15.3334 17.25L21.323 9.05629C20.9716 8.80074 20.6841 8.46532 20.4605 8.05005C20.2369 7.63477 20.125 7.18755 20.125 6.70838C20.125 5.90977 20.4049 5.23063 20.9645 4.67096C21.5242 4.1113 22.2027 3.8321 23 3.83338C23.7974 3.83466 24.4765 4.11449 25.0375 4.67288C25.5984 5.23127 25.8776 5.90977 25.875 6.70838C25.875 7.18755 25.7632 7.63477 25.5396 8.05005C25.316 8.46532 25.0285 8.80074 24.6771 9.05629L30.6667 17.25L36.6563 14.5667C36.5924 14.407 36.5362 14.2313 36.4876 14.0396C36.4391 13.848 36.4154 13.6403 36.4167 13.4167C36.4167 12.6181 36.6965 11.939 37.2562 11.3793C37.8159 10.8196 38.4944 10.5404 39.2917 10.5417C40.089 10.543 40.7682 10.8228 41.3291 11.3812C41.8901 11.9396 42.1693 12.6181 42.1667 13.4167C42.1642 14.2153 41.885 14.8945 41.3291 15.4541C40.7733 16.0138 40.0942 16.293 39.2917 16.2917C39.2278 16.2917 39.1563 16.284 39.077 16.2687C38.9978 16.2534 38.9256 16.2451 38.8605 16.2438L36.4167 31.625H9.58338Z" fill="#FFB800"/>
</svg>
