<svg width="24" height="24" viewBox="0 0 24 24" fill="none" xmlns="http://www.w3.org/2000/svg">
<path d="M9 22L7.65 17.45C6.85 16.8167 6.20833 16.025 5.725 15.075C5.24167 14.125 5 13.1 5 12C5 10.9 5.24167 9.875 5.725 8.925C6.20833 7.975 6.85 7.18333 7.65 6.55L9 2H15L16.35 6.55C17.15 7.18333 17.7917 7.975 18.275 8.925C18.7583 9.875 19 10.9 19 12C19 13.1 18.7583 14.125 18.275 15.075C17.7917 16.025 17.15 16.8167 16.35 17.45L15 22H9ZM15.538 15.538C16.5127 14.5627 17 13.3833 17 12C17 10.6167 16.5123 9.43767 15.537 8.463C14.5617 7.48833 13.3827 7.00067 12 7C10.6173 6.99933 9.43833 7.487 8.463 8.463C7.48767 9.439 7 10.618 7 12C7 13.382 7.48767 14.5613 8.463 15.538C9.43833 16.5147 10.6173 17.002 12 17C13.3827 16.998 14.562 16.5103 15.538 15.537" fill="black"/>
</svg>
