<svg width="28" height="28" viewBox="0 0 28 28" fill="none" xmlns="http://www.w3.org/2000/svg">
<path d="M14.875 21H18.375V24.5H14.875V21ZM21 21H24.5V24.5H21V21ZM14.875 14.875H18.375V18.375H14.875V14.875ZM21 14.875H24.5V18.375H21V14.875Z" fill="white"/>
<path d="M24.5 9.625H19.25V6.125C19.25 4.6375 18.1125 3.5 16.625 3.5H11.375C9.8875 3.5 8.75 4.6375 8.75 6.125V9.625H3.5C2.975 9.625 2.625 9.975 2.625 10.5V10.675L4.2875 21.2625C4.375 22.1375 5.1625 22.75 6.0375 22.75H13.125V21H6.0375L4.55 11.375H24.5V9.625ZM10.5 6.125C10.5 5.6 10.85 5.25 11.375 5.25H16.625C17.15 5.25 17.5 5.6 17.5 6.125V9.625H10.5V6.125Z" fill="white"/>
</svg>
